<svg width="1024" height="1024" viewBox="0 0 1024 1024" fill="none" xmlns="http://www.w3.org/2000/svg">
<path d="M303.368 196.718L388.851 117.34C396.435 110.298 406.401 106.385 416.75 106.385H809C831.644 106.385 850 124.741 850 147.385V913.128C850 935.772 831.644 954.128 809 954.128H242.453C219.809 954.128 201.453 935.772 201.453 913.128V295.603C201.453 282.905 207.336 270.924 217.384 263.16L303.368 196.718Z" fill="url(#paint0_linear_1_2)"/>
<path d="M442.905 350.859C443.304 353.716 440.64 356.043 437.863 355.263L197.257 287.715C194.196 286.856 193.313 282.942 195.707 280.851L401.794 100.887C404.188 98.7958 407.947 100.199 408.386 103.347L442.905 350.859Z" fill="url(#paint1_linear_1_2)"/>
<rect x="261.675" y="720.188" width="525.786" height="71.8034" rx="35.9017" fill="url(#paint2_linear_1_2)"/>
<rect x="261.675" y="595.111" width="525.786" height="71.8034" rx="35.9017" fill="url(#paint3_radial_1_2)"/>
<path d="M755.034 507.094H312.164C284.947 507.094 257.995 501.747 232.839 491.356C222.74 487.185 212.986 482.224 203.667 476.518L183.427 464.127C168.45 454.957 154.308 444.491 141.162 432.848L120.385 414.444L95.2788 386.035C82.7304 371.836 72.0847 356.063 63.6102 339.114C54.4092 320.711 47.8563 301.101 44.1462 280.864L43.9018 279.531C39.3326 254.608 38.9536 229.098 42.7803 204.05L44.9608 189.777C48.1236 169.076 54.7739 149.06 64.6289 130.582L76.8798 107.612C83.3891 95.4067 92.8496 85.025 104.399 77.413C125.477 63.5208 151.737 59.9924 175.734 67.8282L176.997 68.2407C188.537 72.0087 199.143 78.1868 208.113 86.3655L222.221 99.2283C229.978 106.301 237.081 114.06 243.443 122.409L270.94 158.5" stroke="url(#paint4_linear_1_2)" stroke-width="69" stroke-linecap="round"/>
<defs>
<linearGradient id="paint0_linear_1_2" x1="525.726" y1="106.385" x2="525.726" y2="954.128" gradientUnits="userSpaceOnUse">
<stop offset="0.346695" stop-color="#CFEE91"/>
<stop offset="1" stop-color="#269755"/>
</linearGradient>
<linearGradient id="paint1_linear_1_2" x1="250.417" y1="135.52" x2="455.229" y2="369.498" gradientUnits="userSpaceOnUse">
<stop offset="0.177885" stop-color="#269755"/>
<stop offset="1" stop-color="#B8D47F"/>
</linearGradient>
<linearGradient id="paint2_linear_1_2" x1="261.675" y1="756.09" x2="787.462" y2="756.09" gradientUnits="userSpaceOnUse">
<stop stop-color="#F8EEB4"/>
<stop offset="1" stop-color="#E8FFC8"/>
</linearGradient>
<radialGradient id="paint3_radial_1_2" cx="0" cy="0" r="1" gradientUnits="userSpaceOnUse" gradientTransform="translate(510.671 632.171) rotate(-7.04332) scale(302.234 302.234)">
<stop stop-color="#F8EEB4"/>
<stop offset="0.9999" stop-color="#269755"/>
</radialGradient>
<linearGradient id="paint4_linear_1_2" x1="331.162" y1="98.2778" x2="289.47" y2="527.94" gradientUnits="userSpaceOnUse">
<stop stop-color="#269755"/>
<stop offset="0.956731" stop-color="#F8EEB4"/>
</linearGradient>
</defs>
</svg>
